<svg width="108" height="38" viewBox="0 0 108 38" fill="none" xmlns="http://www.w3.org/2000/svg">
<path d="M107.881 18.2924C103.342 22.0786 100.534 23.9716 99.4587 23.9716C98.8349 23.9716 98.523 23.7135 98.523 23.1972C98.523 22.6809 98.7488 22.0678 99.2006 21.3579C99.6739 20.648 100.136 20.0241 100.588 19.4863C101.061 18.927 101.298 18.5936 101.298 18.486C101.298 18.3785 101.266 18.3247 101.201 18.3247C99.2006 19.6584 98.0067 20.4759 97.6195 20.7771C97.2537 21.0782 96.6406 21.573 95.7802 22.2614C94.9412 22.9498 94.3926 23.38 94.1345 23.5521C93.8763 23.7242 93.5967 23.8103 93.2955 23.8103C92.9943 23.8103 92.8438 23.6812 92.8438 23.4231C92.8438 23.1219 93.4461 22.1754 94.6508 20.5835C95.8124 18.9916 96.3933 18.0988 96.3933 17.9052C96.3933 17.8622 96.3502 17.8407 96.2642 17.8407C96.1996 17.8407 95.2746 18.4968 93.4891 19.809L93.36 19.325C94.8874 18.0988 95.92 17.3136 96.4578 16.9694C96.9956 16.6252 97.4258 16.4531 97.7485 16.4531C98.0927 16.4531 98.2648 16.6145 98.2648 16.9371C98.2648 17.1523 97.6517 18.0343 96.4255 19.5831C95.2208 21.1105 94.6185 21.9387 94.6185 22.0678C94.6185 22.1754 94.6508 22.2291 94.7153 22.2291C94.8014 22.2291 96.0275 21.3687 98.3939 19.6477C100.782 17.9052 102.234 17.034 102.75 17.034C102.901 17.034 103.041 17.0985 103.17 17.2276C103.32 17.3351 103.395 17.4427 103.395 17.5502C103.395 17.8084 102.825 18.6689 101.685 20.1317C100.545 21.573 99.975 22.3905 99.975 22.5841C99.975 22.7777 100.104 22.8745 100.362 22.8745C100.642 22.8745 101.223 22.5841 102.105 22.0033C103.718 20.9492 105.202 19.8628 106.558 18.7442L107.268 18.1633C107.418 18.0558 107.558 18.002 107.687 18.002C107.816 18.002 107.881 18.0665 107.881 18.1956V18.2924Z" fill="white"/>
<path d="M92.1445 13.8125C92.3597 13.8125 92.521 13.877 92.6286 14.0061C92.7576 14.1352 92.8222 14.318 92.8222 14.5547C92.8222 14.7913 92.6608 15.0925 92.3382 15.4582C92.0155 15.8239 91.7358 16.0067 91.4992 16.0067C91.2626 16.0067 91.0904 15.9422 90.9829 15.8131C90.8753 15.6625 90.8216 15.5012 90.8216 15.3291C90.8216 15.1355 90.9936 14.8343 91.3378 14.4256C91.682 14.0169 91.9509 13.8125 92.1445 13.8125ZM94.8228 18.1687C94.9949 18.0612 95.124 18.0074 95.21 18.0074C95.3176 18.0074 95.3714 18.0719 95.3714 18.201V18.2978C95.4574 18.2978 94.8766 18.7711 93.6289 19.7176C92.4027 20.6641 91.0797 21.6107 89.6599 22.5572C88.2616 23.5037 87.3796 23.977 87.0139 23.977C86.3901 23.977 86.0781 23.7188 86.0781 23.2026C86.0781 22.5787 86.6159 21.4063 87.6915 19.6853C88.7671 17.9428 89.5523 17.0716 90.0471 17.0716C90.4128 17.0716 90.5957 17.2114 90.5957 17.4911C90.5957 17.7707 90.1009 18.5344 89.1113 19.7821C88.1218 21.0298 87.627 21.9226 87.627 22.4604C87.627 22.7616 87.7346 22.9121 87.9497 22.9121C88.1863 22.9121 88.7564 22.611 89.6599 22.0086C91.2733 20.933 92.7576 19.8467 94.1129 18.7495L94.8228 18.1687Z" fill="white"/>
<path d="M86.1234 18.4256L85.6071 18.1997C85.1984 18.1997 82.9719 19.9529 78.9276 23.4594C78.5404 23.8036 78.25 23.9757 78.0564 23.9757C77.8843 23.9757 77.7444 23.9112 77.6369 23.7821C77.5508 23.653 77.5078 23.5132 77.5078 23.3626C77.5078 23.1905 77.8735 22.4591 78.6049 21.1684C79.3363 19.8561 79.7021 19.157 79.7021 19.0709C79.7021 18.9634 79.659 18.9096 79.573 18.9096C79.2718 19.0602 79.0459 19.1355 78.8953 19.1355C78.7448 19.1355 78.6695 19.0924 78.6695 19.0064C78.6695 18.8988 78.7125 18.802 78.7985 18.716C79.7021 18.0061 80.3259 17.6511 80.6701 17.6511C81.0358 17.6511 81.2187 17.8555 81.2187 18.2642C81.2187 18.6729 80.9498 19.3398 80.412 20.2648C79.8741 21.1684 79.6052 21.6954 79.6052 21.846C79.6052 21.9966 79.6375 22.0719 79.7021 22.0719C79.7881 22.0719 79.8849 22.0288 79.9925 21.9428C80.1 21.8567 80.6701 21.362 81.7027 20.4585C85.2092 17.7049 87.1237 16.3281 87.4464 16.3281C87.4679 16.3281 87.4787 16.3281 87.4787 16.3281C87.6078 16.3281 87.7368 16.3711 87.8659 16.4572C87.995 16.5432 88.0595 16.6723 88.0595 16.8444C88.0595 17.0165 87.8121 17.3284 87.3174 17.7802C86.8226 18.2104 86.4246 18.4256 86.1234 18.4256Z" fill="white"/>
<path d="M74.0861 19.681C73.957 19.681 73.8925 19.6379 73.8925 19.5519C73.8925 19.4443 73.9678 19.326 74.1184 19.1969C74.8283 18.6161 75.1832 18.0891 75.1832 17.6158C75.1832 17.3146 74.9143 17.1425 74.3765 17.0995C73.4085 17.121 72.2468 17.8202 70.8916 19.1969C69.5578 20.5737 68.8909 21.6063 68.8909 22.2947C68.8909 22.5313 69.02 22.6496 69.2781 22.6496C69.5578 22.6496 69.9235 22.4668 70.3753 22.1011C70.784 21.8429 71.5477 21.1976 72.6663 20.165C72.9245 19.9068 73.1718 19.7778 73.4085 19.7778C73.7096 19.7778 73.8602 19.9176 73.8602 20.1973C73.8602 20.3048 73.828 20.3909 73.7634 20.4554C73.6989 20.5199 73.5806 20.6598 73.4085 20.8749C73.2364 21.0685 73.0858 21.2514 72.9567 21.4235C72.5695 21.9828 72.3759 22.3485 72.3759 22.5206C72.3759 22.9508 72.548 23.1659 72.8922 23.1659C73.3439 23.1659 74.1937 22.7572 75.4414 21.9397C76.6891 21.1008 77.8292 20.2618 78.8618 19.4228L80.4107 18.1966C80.5613 18.0891 80.7011 18.0353 80.8302 18.0353C80.9592 18.0353 81.0238 18.1106 81.0238 18.2612V18.3257C79.3673 19.724 77.6141 21.0362 75.7641 22.2624C73.9355 23.4886 72.7308 24.1017 72.15 24.1017C71.4616 24.1017 71.1174 23.736 71.1174 23.0046C71.1174 22.8325 71.1497 22.6712 71.2142 22.5206C71.2788 22.37 71.311 22.2624 71.311 22.1979C71.311 22.1334 71.2895 22.0903 71.2465 22.0688C71.182 22.0688 70.7625 22.3592 69.988 22.9401C69.2351 23.5209 68.5682 23.8113 67.9874 23.8113C67.4281 23.8113 67.1484 23.5101 67.1484 22.9078C67.1484 22.3055 67.5464 21.4987 68.3424 20.4877C69.1598 19.4551 70.2462 18.5193 71.6015 17.6803C72.9567 16.8414 74.2797 16.4219 75.5704 16.4219C75.8716 16.4219 76.119 16.4972 76.3126 16.6478C76.5277 16.7983 76.6353 17.035 76.6353 17.3577C76.6353 17.6588 76.3234 18.1213 75.6995 18.7452C75.0757 19.369 74.5379 19.681 74.0861 19.681Z" fill="white"/>
<path d="M56.9931 21.9711C56.9931 22.2938 57.2943 22.6595 57.8966 23.0682C58.4774 23.4554 59.0368 23.649 59.5746 23.649C60.1339 23.649 60.6071 23.6168 60.9944 23.5522L61.672 22.6487C61.0481 21.5301 60.0478 20.9708 58.671 20.9708C58.1978 20.9708 57.7998 21.0568 57.4771 21.2289C57.1544 21.3795 56.9931 21.6269 56.9931 21.9711ZM62.156 24.7462C62.156 24.5741 62.1345 24.3374 62.0915 24.0363C56.778 31.587 54.1212 35.7281 54.1212 36.4595C54.1212 36.6531 54.2503 36.7499 54.5084 36.7499C55.4765 36.7499 56.5736 36.0723 57.7998 34.717C59.0045 33.3833 60.0263 31.7591 60.8653 29.8445C61.7258 27.9515 62.156 26.252 62.156 24.7462ZM71.3525 18.3248C68.0396 21.0783 65.3398 22.8423 63.2531 23.6168C63.3177 23.9179 63.3499 24.2299 63.3499 24.5525C63.3499 25.8003 63.0057 27.2093 62.3174 28.7797C61.6505 30.3716 60.8223 31.8344 59.8327 33.1682C58.8431 34.5019 57.7675 35.6206 56.6059 36.5241C55.4227 37.4491 54.3686 37.9116 53.4436 37.9116C52.8197 37.9116 52.5078 37.6642 52.5078 37.1694C52.5078 36.2014 55.1538 31.9312 60.4458 24.3589C60.1231 24.3805 59.8972 24.3912 59.7682 24.3912C58.671 24.3912 57.7998 24.1653 57.1544 23.7136C56.5091 23.2618 56.1864 22.767 56.1864 22.2292C56.1864 21.6699 56.4553 21.2289 56.9931 20.9062C57.5094 20.5836 58.1548 20.4222 58.9292 20.4222C60.3275 20.4222 61.4461 20.874 62.2851 21.7775L69.61 11.7421C69.61 11.699 69.5777 11.6775 69.5132 11.6775C67.6416 13.6566 65.9959 15.3238 64.5761 16.6791C63.1778 18.0344 62.2421 18.8949 61.7688 19.2606L61.0589 19.8091L60.8975 19.3251C62.5325 17.9913 64.0491 16.6146 65.4474 15.1948C66.8457 13.775 67.8352 12.6886 68.4161 11.9357L69.2873 10.8063C70.7716 8.93472 71.6859 7.80534 72.0301 7.41812C72.5679 6.83729 72.9874 6.54688 73.2886 6.54688C73.5897 6.54688 73.7403 6.72973 73.7403 7.09543C73.7403 7.41812 73.1057 8.49373 71.8365 10.3223C70.5673 12.1508 69.5777 13.5706 68.8678 14.5817C66.6521 17.7009 65.2753 19.6155 64.7375 20.3254L62.995 22.7778L63.0918 23.0359C64.7052 22.4551 66.4692 21.4548 68.3838 20.035L70.7394 18.1957C70.9115 18.0881 71.0513 18.0344 71.1589 18.0344C71.2879 18.0344 71.3525 18.1097 71.3525 18.2602V18.3248Z" fill="white"/>
<path d="M55.7888 18.1979C55.9394 18.0903 56.0792 18.0365 56.2083 18.0365C56.3374 18.0365 56.4019 18.1118 56.4019 18.2624V18.3269C54.1647 20.177 52.4652 21.4677 51.3035 22.1991C49.7977 23.3393 48.5285 23.9094 47.4959 23.9094C46.5924 23.9094 46.1406 23.3715 46.1406 22.2959C46.1406 20.8546 47.0656 18.7249 48.9157 15.9068C50.7872 13.0672 52.8847 10.518 55.208 8.25926C57.5313 6.00048 59.2845 4.87109 60.4677 4.87109C61.0055 4.87109 61.2744 5.10773 61.2744 5.581C61.2744 6.76416 59.8546 8.72177 57.015 11.4538C54.1969 14.1643 51.4219 16.4769 48.6898 18.3915C47.8939 19.9188 47.4959 21.0805 47.4959 21.8765C47.4959 22.6724 47.7755 23.0704 48.3349 23.0704C48.8942 23.0704 49.6256 22.7477 50.5291 22.1023C52.0565 21.1988 53.5408 20.1232 54.9821 18.8755L55.7888 18.1979ZM59.661 5.90368C58.7575 5.90368 57.1548 7.20516 54.853 9.80813C52.5512 12.4111 50.6474 15.0141 49.1416 17.617C51.6155 15.8531 54.0356 13.7018 56.4019 11.1634C58.7683 8.60346 59.9514 6.94702 59.9514 6.19409C59.9514 6.00048 59.8546 5.90368 59.661 5.90368Z" fill="white"/>
<path d="M39.3297 23.1324C39.3297 22.8097 39.4803 22.3902 39.7815 21.874C40.1042 21.3577 40.2763 21.0565 40.2978 20.9704C40.3193 20.8844 40.2978 20.8414 40.2332 20.8414C40.1687 20.8414 40.0719 20.9059 39.9428 21.035C39.8353 21.1425 39.1791 21.5943 37.9745 22.3902C36.7913 23.1647 35.9738 23.5519 35.5221 23.5519C35.2209 23.5519 35.0703 23.3583 35.0703 22.9711C35.0703 22.5839 35.6727 21.5835 36.8773 19.9701C38.082 18.3567 38.9317 17.55 39.4265 17.55C39.5341 17.55 39.6309 17.6038 39.7169 17.7114C39.8245 17.7974 39.8783 17.8727 39.8783 17.9372C39.8783 17.9803 39.319 18.6364 38.2003 19.9056C37.1032 21.1748 36.5547 21.9923 36.5547 22.358C36.5547 22.444 36.5977 22.4871 36.6837 22.4871C37.0925 22.4871 37.9745 21.9385 39.3297 20.8414C40.685 19.7443 41.6423 18.8945 42.2016 18.2922C42.7824 17.6898 43.2342 17.3887 43.5569 17.3887C43.8795 17.3887 44.0409 17.5285 44.0409 17.8082C44.0409 17.9803 43.9763 18.1524 43.8473 18.3244C43.7182 18.4965 43.4708 18.8085 43.1051 19.2602C42.7609 19.6905 42.4382 20.0992 42.1371 20.4864C41.2981 21.562 40.8786 22.2397 40.8786 22.5193C40.8786 22.7775 40.9862 22.9065 41.2013 22.9065C41.4379 22.9065 41.9972 22.6054 42.8792 22.003C44.5141 20.9274 46.0092 19.8411 47.3645 18.7439L48.0744 18.1631C48.225 18.0555 48.3541 18.0018 48.4616 18.0018C48.5692 18.0018 48.623 18.0663 48.623 18.1954V18.2922C48.709 18.2922 48.1282 18.7654 46.8805 19.712C45.6543 20.6585 44.3313 21.6051 42.9115 22.5516C41.5132 23.4981 40.6312 23.9714 40.2655 23.9714C39.6416 23.9714 39.3297 23.6917 39.3297 23.1324Z" fill="white"/>
<path d="M32.3322 19.681C32.2031 19.681 32.1386 19.6379 32.1386 19.5519C32.1386 19.4443 32.2139 19.326 32.3645 19.1969C33.0744 18.6161 33.4293 18.0891 33.4293 17.6158C33.4293 17.3146 33.1604 17.1425 32.6226 17.0995C31.6546 17.121 30.4929 17.8202 29.1376 19.1969C27.8039 20.5737 27.137 21.6063 27.137 22.2947C27.137 22.5313 27.2661 22.6496 27.5242 22.6496C27.8039 22.6496 28.1696 22.4668 28.6214 22.1011C29.0301 21.8429 29.7938 21.1976 30.9124 20.165C31.1705 19.9068 31.4179 19.7778 31.6546 19.7778C31.9557 19.7778 32.1063 19.9176 32.1063 20.1973C32.1063 20.3048 32.0741 20.3909 32.0095 20.4554C31.945 20.5199 31.8267 20.6598 31.6546 20.8749C31.4825 21.0685 31.3319 21.2514 31.2028 21.4235C30.8156 21.9828 30.622 22.3485 30.622 22.5206C30.622 22.9508 30.7941 23.1659 31.1383 23.1659C31.59 23.1659 32.4398 22.7572 33.6875 21.9397C34.9352 21.1008 36.0753 20.2618 37.1079 19.4228L38.6568 18.1966C38.8074 18.0891 38.9472 18.0353 39.0763 18.0353C39.2053 18.0353 39.2699 18.1106 39.2699 18.2612V18.3257C37.6134 19.724 35.8602 21.0362 34.0101 22.2624C32.1816 23.4886 30.9769 24.1017 30.3961 24.1017C29.7077 24.1017 29.3635 23.736 29.3635 23.0046C29.3635 22.8325 29.3958 22.6712 29.4603 22.5206C29.5249 22.37 29.5571 22.2624 29.5571 22.1979C29.5571 22.1334 29.5356 22.0903 29.4926 22.0688C29.4281 22.0688 29.0086 22.3592 28.2341 22.9401C27.4812 23.5209 26.8143 23.8113 26.2335 23.8113C25.6742 23.8113 25.3945 23.5101 25.3945 22.9078C25.3945 22.3055 25.7925 21.4987 26.5885 20.4877C27.4059 19.4551 28.4923 18.5193 29.8475 17.6803C31.2028 16.8414 32.5258 16.4219 33.8165 16.4219C34.1177 16.4219 34.3651 16.4972 34.5587 16.6478C34.7738 16.7983 34.8814 17.035 34.8814 17.3577C34.8814 17.6588 34.5695 18.1213 33.9456 18.7452C33.3218 19.369 32.784 19.681 32.3322 19.681Z" fill="white"/>
<path d="M15.4242 9.77727C15.4242 9.58366 15.2521 9.4761 14.9079 9.45459C13.8323 11.6273 12.2834 14.0367 10.2613 16.6827C8.23915 19.3072 6.32457 21.4906 4.51755 23.2331C2.73204 24.9756 1.52736 25.8469 0.90351 25.8469C0.30117 25.8469 0 25.5887 0 25.0724C0 23.8677 1.48434 21.4476 4.45302 17.8121C7.4432 14.155 10.7883 10.7561 14.4884 7.6153C14.8541 6.56121 15.037 5.62543 15.037 4.80797C15.037 3.96899 14.8004 3.25909 14.3271 2.67826C13.8753 2.07592 13.2622 1.63492 12.4878 1.35527C11.111 0.860486 9.65896 0.613096 8.13159 0.613096C4.6036 0.613096 2.81809 1.20468 2.77507 2.38785C2.77507 2.8396 3.04397 3.23758 3.58177 3.58177C4.11958 3.90446 4.7757 4.19487 5.55014 4.45302C6.34609 4.71116 7.13128 5.00158 7.90572 5.32426C8.70167 5.62543 9.36854 6.06643 9.90635 6.64725C10.4657 7.22808 10.7453 7.85194 10.7453 8.51881C10.7453 9.18569 10.6378 9.51913 10.4226 9.51913C10.229 9.51913 10.1322 9.39005 10.1322 9.13191C10.1322 8.33596 9.68047 7.64757 8.77696 7.06674C7.87345 6.48591 6.88389 6.04491 5.80828 5.74374C4.73267 5.42106 3.74311 5.00158 2.8396 4.48528C1.93609 3.96899 1.48434 3.42043 1.48434 2.8396C1.48434 2.23726 1.71022 1.75324 2.16197 1.38753C2.61373 1.00031 3.1838 0.7099 3.87219 0.516291C5.24897 0.172097 6.49667 0 7.6153 0C8.73393 0 9.745 0.0752922 10.6485 0.225877C11.5735 0.376462 12.477 0.634608 13.359 1.00031C14.241 1.34451 14.9509 1.8608 15.4887 2.54919C16.0266 3.23758 16.2955 4.05504 16.2955 5.00157C16.2955 5.34577 16.2417 5.76526 16.1341 6.26004C21.254 2.19424 25.3521 0.161341 28.4283 0.161341C29.5685 0.161341 30.1385 0.591584 30.1385 1.45207C30.1385 2.46314 29.4501 3.82916 28.0734 5.55014C26.7181 7.2496 25.1262 8.7662 23.2977 10.1C21.4691 11.4337 19.9633 12.1006 18.7801 12.1006C18.0487 12.1006 17.4033 11.95 16.844 11.6488C16.8225 11.6273 16.7795 11.6166 16.7149 11.6166C16.6504 11.6166 16.6181 11.95 16.6181 12.6169C16.6181 13.2622 16.6289 13.9184 16.6504 14.5852C16.6934 15.2306 16.7902 16.1126 16.9408 17.2312C17.0914 18.3284 17.3065 19.2749 17.5862 20.0708C17.8658 20.8453 18.2853 21.5337 18.8446 22.136C19.404 22.7383 20.0386 23.0395 20.7485 23.0395C21.4799 23.0395 22.6093 22.6953 24.1366 22.0069C24.3518 21.8994 24.5346 21.8456 24.6852 21.8456C24.8573 21.8456 24.9433 21.8886 24.9433 21.9747C24.9433 22.1683 24.782 22.3404 24.4593 22.491C22.6093 23.459 21.168 23.943 20.1354 23.943C19.1028 23.943 18.2423 23.5773 17.5539 22.8459C16.887 22.093 16.4245 21.0927 16.1664 19.845C15.9082 18.5757 15.7361 17.3603 15.6501 16.1987C15.564 15.0155 15.521 13.757 15.521 12.4233C15.521 11.0895 15.4887 10.2075 15.4242 9.77727ZM15.7792 7.45396C15.6071 7.94874 15.4135 8.42201 15.1983 8.87376H16.2309C16.3385 8.87376 16.403 8.97057 16.4245 9.16418C16.446 9.35779 16.4676 9.59442 16.4891 9.87408C16.5106 10.1537 16.5859 10.3904 16.7149 10.584C16.844 10.7561 17.0914 10.9497 17.4571 11.1648C17.8443 11.3799 18.2853 11.4875 18.7801 11.4875C19.7697 11.4875 21.0389 10.8206 22.5878 9.48686C24.1581 8.13159 25.5134 6.65801 26.6536 5.06611C27.7937 3.4527 28.3638 2.28029 28.3638 1.54887C28.3638 1.16166 28.1702 0.968046 27.7829 0.968046C25.0939 0.968046 21.0927 3.13002 15.7792 7.45396ZM1.38753 24.8788C1.88231 24.8788 2.93641 24.0506 4.54982 22.3942C6.16323 20.7377 7.90572 18.6188 9.77727 16.0373C11.6488 13.4559 13.0471 11.1003 13.9721 8.97057C10.5732 11.8962 7.59379 14.9187 5.03384 18.0379C2.49541 21.1572 1.22619 23.3622 1.22619 24.6529C1.22619 24.8035 1.27997 24.8788 1.38753 24.8788Z" fill="white"/>
</svg>
